<svg width="62" height="27" viewBox="0 0 62 27" fill="none" xmlns="http://www.w3.org/2000/svg">
<path fill-rule="evenodd" clip-rule="evenodd" d="M12.2563 1.14236C12.2563 0.629088 12.7022 0.229613 13.2124 0.285796L27.4985 1.85901C29.8429 2.11719 31.7084 3.82377 32.243 6.02802H41.6389C46.3345 6.02802 50.9645 7.13024 55.1564 9.24599L60.047 11.7144C61.5121 12.4538 61.5121 14.5458 60.047 15.2853L55.1564 17.7537C50.9645 19.8694 46.3345 20.9717 41.6389 20.9717H32.243C31.7084 23.1759 29.8429 24.8825 27.4985 25.1407L13.2124 26.7139C12.7022 26.7701 12.2563 26.3706 12.2563 25.8573V20.6722C12.2563 20.1199 12.7041 19.6722 13.2563 19.6722H16.4928C15.4868 18.7576 14.8552 17.4384 14.8552 15.9717V11.028C14.8552 9.5613 15.4868 8.24209 16.4928 7.32747H13.2563C12.7041 7.32747 12.2563 6.87975 12.2563 6.32747V1.14236Z" fill="#D9D9D9"/>
<circle cx="8.68292" cy="14.1497" r="4.2232" fill="#D9D9D9"/>
<circle cx="4.13476" cy="14.1497" r="3.57348" fill="#D9D9D9"/>
</svg>
